<svg viewBox="-16 -32 880 192" width="880" height="192" xmlns="http://www.w3.org/2000/svg"><desc>Generated with https://github.com/Platane/snk</desc><style>:root{--cb:#1b1f230a;--cs:#0043A3;--ce:#bfd6f6;--c0:#bfd6f6;--c1:#8dbdff;--c2:#64a1f4;--c3:#4b91f1;--c4:#3c7dd9}.c{shape-rendering:geometricPrecision;fill:var(--ce);stroke-width:1px;stroke:var(--cb);animation:none 30700ms linear infinite;width:12px;height:12px}@keyframes c0{1.94%{fill:var(--c1)}1.96%,100%{fill:var(--ce)}}.c.c0{fill:var(--c1);animation-name:c0}@keyframes c1{4.88%{fill:var(--c1)}4.9%,100%{fill:var(--ce)}}.c.c1{fill:var(--c1);animation-name:c1}@keyframes c2{48.2%{fill:var(--c2)}48.22%,100%{fill:var(--ce)}}.c.c2{fill:var(--c2);animation-name:c2}@keyframes c3{4.22%{fill:var(--c1)}4.24%,100%{fill:var(--ce)}}.c.c3{fill:var(--c1);animation-name:c3}@keyframes c4{6.5%{fill:var(--c1)}6.52%,100%{fill:var(--ce)}}.c.c4{fill:var(--c1);animation-name:c4}@keyframes c5{14%{fill:var(--c1)}14.02%,100%{fill:var(--ce)}}.c.c5{fill:var(--c1);animation-name:c5}@keyframes c6{7.48%{fill:var(--c1)}7.5%,100%{fill:var(--ce)}}.c.c6{fill:var(--c1);animation-name:c6}@keyframes c7{7.16%{fill:var(--c1)}7.18%,100%{fill:var(--ce)}}.c.c7{fill:var(--c1);animation-name:c7}@keyframes c8{6.83%{fill:var(--c1)}6.85%,100%{fill:var(--ce)}}.c.c8{fill:var(--c1);animation-name:c8}@keyframes c9{13.67%{fill:var(--c1)}13.69%,100%{fill:var(--ce)}}.c.c9{fill:var(--c1);animation-name:c9}@keyframes ca{8.46%{fill:var(--c1)}8.48%,100%{fill:var(--ce)}}.c.ca{fill:var(--c1);animation-name:ca}@keyframes cb{11.72%{fill:var(--c1)}11.74%,100%{fill:var(--ce)}}.c.cb{fill:var(--c1);animation-name:cb}@keyframes cc{11.06%{fill:var(--c1)}11.08%,100%{fill:var(--ce)}}.c.cc{fill:var(--c1);animation-name:cc}@keyframes cd{9.76%{fill:var(--c1)}9.78%,100%{fill:var(--ce)}}.c.cd{fill:var(--c1);animation-name:cd}@keyframes ce{10.41%{fill:var(--c1)}10.43%,100%{fill:var(--ce)}}.c.ce{fill:var(--c1);animation-name:ce}@keyframes cf{10.74%{fill:var(--c1)}10.76%,100%{fill:var(--ce)}}.c.cf{fill:var(--c1);animation-name:cf}@keyframes cg{18.56%{fill:var(--c1)}18.58%,100%{fill:var(--ce)}}.c.cg{fill:var(--c1);animation-name:cg}@keyframes ch{19.86%{fill:var(--c1)}19.88%,100%{fill:var(--ce)}}.c.ch{fill:var(--c1);animation-name:ch}@keyframes ci{20.84%{fill:var(--c1)}20.86%,100%{fill:var(--ce)}}.c.ci{fill:var(--c1);animation-name:ci}@keyframes cj{22.14%{fill:var(--c1)}22.16%,100%{fill:var(--ce)}}.c.cj{fill:var(--c1);animation-name:cj}@keyframes ck{22.47%{fill:var(--c1)}22.49%,100%{fill:var(--ce)}}.c.ck{fill:var(--c1);animation-name:ck}@keyframes cl{25.72%{fill:var(--c1)}25.74%,100%{fill:var(--ce)}}.c.cl{fill:var(--c1);animation-name:cl}@keyframes cm{25.4%{fill:var(--c1)}25.42%,100%{fill:var(--ce)}}.c.cm{fill:var(--c1);animation-name:cm}@keyframes cn{27.03%{fill:var(--c1)}27.05%,100%{fill:var(--ce)}}.c.cn{fill:var(--c1);animation-name:cn}@keyframes co{26.05%{fill:var(--c1)}26.07%,100%{fill:var(--ce)}}.c.co{fill:var(--c1);animation-name:co}@keyframes cp{75.56%{fill:var(--c3)}75.58%,100%{fill:var(--ce)}}.c.cp{fill:var(--c3);animation-name:cp}@keyframes cq{32.24%{fill:var(--c1)}32.26%,100%{fill:var(--ce)}}.c.cq{fill:var(--c1);animation-name:cq}@keyframes cr{32.56%{fill:var(--c2)}32.58%,100%{fill:var(--ce)}}.c.cr{fill:var(--c2);animation-name:cr}@keyframes cs{28.98%{fill:var(--c1)}29%,100%{fill:var(--ce)}}.c.cs{fill:var(--c1);animation-name:cs}@keyframes ct{29.31%{fill:var(--c1)}29.33%,100%{fill:var(--ce)}}.c.ct{fill:var(--c1);animation-name:ct}@keyframes cu{34.19%{fill:var(--c2)}34.21%,100%{fill:var(--ce)}}.c.cu{fill:var(--c2);animation-name:cu}@keyframes cv{78.17%{fill:var(--c4)}78.19%,100%{fill:var(--ce)}}.c.cv{fill:var(--c4);animation-name:cv}@keyframes cw{77.51%{fill:var(--c4)}77.53%,100%{fill:var(--ce)}}.c.cw{fill:var(--c4);animation-name:cw}@keyframes cx{60.9%{fill:var(--c3)}60.92%,100%{fill:var(--ce)}}.c.cx{fill:var(--c3);animation-name:cx}@keyframes cy{33.21%{fill:var(--c2)}33.23%,100%{fill:var(--ce)}}.c.cy{fill:var(--c2);animation-name:cy}@keyframes cz{30.93%{fill:var(--c1)}30.95%,100%{fill:var(--ce)}}.c.cz{fill:var(--c1);animation-name:cz}@keyframes c10{30.28%{fill:var(--c1)}30.3%,100%{fill:var(--ce)}}.c.c10{fill:var(--c1);animation-name:c10}@keyframes c11{79.14%{fill:var(--c4)}79.16%,100%{fill:var(--ce)}}.c.c11{fill:var(--c4);animation-name:c11}@keyframes c12{68.39%{fill:var(--c3)}68.41%,100%{fill:var(--ce)}}.c.c12{fill:var(--c3);animation-name:c12}@keyframes c13{61.55%{fill:var(--c3)}61.57%,100%{fill:var(--ce)}}.c.c13{fill:var(--c3);animation-name:c13}@keyframes c14{69.05%{fill:var(--c3)}69.07%,100%{fill:var(--ce)}}.c.c14{fill:var(--c3);animation-name:c14}@keyframes c15{72.63%{fill:var(--c3)}72.65%,100%{fill:var(--ce)}}.c.c15{fill:var(--c3);animation-name:c15}@keyframes c16{72.95%{fill:var(--c3)}72.97%,100%{fill:var(--ce)}}.c.c16{fill:var(--c3);animation-name:c16}@keyframes c17{65.46%{fill:var(--c3)}65.48%,100%{fill:var(--ce)}}.c.c17{fill:var(--c3);animation-name:c17}@keyframes c18{65.79%{fill:var(--c3)}65.81%,100%{fill:var(--ce)}}.c.c18{fill:var(--c3);animation-name:c18}@keyframes c19{68.07%{fill:var(--c3)}68.09%,100%{fill:var(--ce)}}.c.c19{fill:var(--c3);animation-name:c19}@keyframes c1a{61.88%{fill:var(--c3)}61.9%,100%{fill:var(--ce)}}.c.c1a{fill:var(--c3);animation-name:c1a}@keyframes c1b{69.37%{fill:var(--c3)}69.39%,100%{fill:var(--ce)}}.c.c1b{fill:var(--c3);animation-name:c1b}@keyframes c1c{72.3%{fill:var(--c3)}72.32%,100%{fill:var(--ce)}}.c.c1c{fill:var(--c3);animation-name:c1c}@keyframes c1d{73.28%{fill:var(--c3)}73.3%,100%{fill:var(--ce)}}.c.c1d{fill:var(--c3);animation-name:c1d}@keyframes c1e{65.14%{fill:var(--c3)}65.16%,100%{fill:var(--ce)}}.c.c1e{fill:var(--c3);animation-name:c1e}@keyframes c1f{66.11%{fill:var(--c3)}66.13%,100%{fill:var(--ce)}}.c.c1f{fill:var(--c3);animation-name:c1f}@keyframes c1g{67.74%{fill:var(--c3)}67.76%,100%{fill:var(--ce)}}.c.c1g{fill:var(--c3);animation-name:c1g}@keyframes c1h{62.2%{fill:var(--c3)}62.22%,100%{fill:var(--ce)}}.c.c1h{fill:var(--c3);animation-name:c1h}@keyframes c1i{69.7%{fill:var(--c3)}69.72%,100%{fill:var(--ce)}}.c.c1i{fill:var(--c3);animation-name:c1i}@keyframes c1j{71.98%{fill:var(--c3)}72%,100%{fill:var(--ce)}}.c.c1j{fill:var(--c3);animation-name:c1j}@keyframes c1k{71.65%{fill:var(--c3)}71.67%,100%{fill:var(--ce)}}.c.c1k{fill:var(--c3);animation-name:c1k}@keyframes c1l{64.81%{fill:var(--c3)}64.83%,100%{fill:var(--ce)}}.c.c1l{fill:var(--c3);animation-name:c1l}@keyframes c1m{66.44%{fill:var(--c3)}66.46%,100%{fill:var(--ce)}}.c.c1m{fill:var(--c3);animation-name:c1m}@keyframes c1n{67.42%{fill:var(--c3)}67.44%,100%{fill:var(--ce)}}.c.c1n{fill:var(--c3);animation-name:c1n}@keyframes c1o{62.53%{fill:var(--c3)}62.55%,100%{fill:var(--ce)}}.c.c1o{fill:var(--c3);animation-name:c1o}@keyframes c1p{70.02%{fill:var(--c3)}70.04%,100%{fill:var(--ce)}}.c.c1p{fill:var(--c3);animation-name:c1p}@keyframes c1q{70.35%{fill:var(--c3)}70.37%,100%{fill:var(--ce)}}.c.c1q{fill:var(--c3);animation-name:c1q}@keyframes c1r{71.33%{fill:var(--c3)}71.35%,100%{fill:var(--ce)}}.c.c1r{fill:var(--c3);animation-name:c1r}@keyframes c1s{64.49%{fill:var(--c3)}64.51%,100%{fill:var(--ce)}}.c.c1s{fill:var(--c3);animation-name:c1s}@keyframes c1t{66.77%{fill:var(--c3)}66.79%,100%{fill:var(--ce)}}.c.c1t{fill:var(--c3);animation-name:c1t}@keyframes c1u{67.09%{fill:var(--c3)}67.11%,100%{fill:var(--ce)}}.c.c1u{fill:var(--c3);animation-name:c1u}@keyframes c1v{62.86%{fill:var(--c3)}62.88%,100%{fill:var(--ce)}}.c.c1v{fill:var(--c3);animation-name:c1v}@keyframes c1w{81.42%{fill:var(--c4)}81.44%,100%{fill:var(--ce)}}.c.c1w{fill:var(--c4);animation-name:c1w}@keyframes c1x{70.67%{fill:var(--c3)}70.69%,100%{fill:var(--ce)}}.c.c1x{fill:var(--c3);animation-name:c1x}@keyframes c1y{71%{fill:var(--c3)}71.02%,100%{fill:var(--ce)}}.c.c1y{fill:var(--c3);animation-name:c1y}@keyframes c1z{64.16%{fill:var(--c3)}64.18%,100%{fill:var(--ce)}}.c.c1z{fill:var(--c3);animation-name:c1z}@keyframes c20{63.83%{fill:var(--c3)}63.85%,100%{fill:var(--ce)}}.c.c20{fill:var(--c3);animation-name:c20}@keyframes c21{63.51%{fill:var(--c3)}63.53%,100%{fill:var(--ce)}}.c.c21{fill:var(--c3);animation-name:c21}@keyframes c22{63.18%{fill:var(--c3)}63.2%,100%{fill:var(--ce)}}.c.c22{fill:var(--c3);animation-name:c22}.u{transform-origin:0 0;transform:scale(0,1);animation:none linear 30700ms infinite}@keyframes u0{1.94%{transform:scale(0.000,1)}1.96%,4.22%{transform:scale(0.034,1)}4.24%,4.88%{transform:scale(0.069,1)}4.9%,6.5%{transform:scale(0.103,1)}6.52%,6.83%{transform:scale(0.138,1)}6.85%,7.16%{transform:scale(0.172,1)}7.18%,7.48%{transform:scale(0.207,1)}7.5%,8.46%{transform:scale(0.241,1)}8.48%,9.76%{transform:scale(0.276,1)}9.78%,10.41%{transform:scale(0.310,1)}10.43%,10.74%{transform:scale(0.345,1)}10.76%,11.06%{transform:scale(0.379,1)}11.08%,11.72%{transform:scale(0.414,1)}11.74%,13.67%{transform:scale(0.448,1)}13.69%,14%{transform:scale(0.483,1)}14.02%,18.56%{transform:scale(0.517,1)}18.58%,19.86%{transform:scale(0.552,1)}19.88%,20.84%{transform:scale(0.586,1)}20.86%,22.14%{transform:scale(0.621,1)}22.16%,22.47%{transform:scale(0.655,1)}22.49%,25.4%{transform:scale(0.690,1)}25.42%,25.72%{transform:scale(0.724,1)}25.74%,26.05%{transform:scale(0.759,1)}26.07%,27.03%{transform:scale(0.793,1)}27.05%,28.98%{transform:scale(0.828,1)}29%,29.31%{transform:scale(0.862,1)}29.33%,30.28%{transform:scale(0.897,1)}30.3%,30.93%{transform:scale(0.931,1)}30.95%,32.24%{transform:scale(0.966,1)}32.26%,100%{transform:scale(1.000,1)}}.u.u0{fill:var(--c1);animation-name:u0;transform-origin:0.0px 0}@keyframes u1{32.56%{transform:scale(0.000,1)}32.58%,33.21%{transform:scale(0.250,1)}33.23%,34.19%{transform:scale(0.500,1)}34.21%,48.2%{transform:scale(0.750,1)}48.22%,100%{transform:scale(1.000,1)}}.u.u1{fill:var(--c2);animation-name:u1;transform-origin:327.9px 0}@keyframes u2{60.9%{transform:scale(0.000,1)}60.92%,61.55%{transform:scale(0.026,1)}61.57%,61.88%{transform:scale(0.053,1)}61.9%,62.2%{transform:scale(0.079,1)}62.22%,62.53%{transform:scale(0.105,1)}62.55%,62.86%{transform:scale(0.132,1)}62.88%,63.18%{transform:scale(0.158,1)}63.2%,63.51%{transform:scale(0.184,1)}63.53%,63.83%{transform:scale(0.211,1)}63.85%,64.16%{transform:scale(0.237,1)}64.18%,64.49%{transform:scale(0.263,1)}64.51%,64.81%{transform:scale(0.289,1)}64.83%,65.14%{transform:scale(0.316,1)}65.16%,65.46%{transform:scale(0.342,1)}65.48%,65.79%{transform:scale(0.368,1)}65.81%,66.11%{transform:scale(0.395,1)}66.13%,66.44%{transform:scale(0.421,1)}66.46%,66.77%{transform:scale(0.447,1)}66.79%,67.09%{transform:scale(0.474,1)}67.11%,67.42%{transform:scale(0.500,1)}67.44%,67.74%{transform:scale(0.526,1)}67.76%,68.07%{transform:scale(0.553,1)}68.09%,68.39%{transform:scale(0.579,1)}68.41%,69.05%{transform:scale(0.605,1)}69.07%,69.37%{transform:scale(0.632,1)}69.39%,69.7%{transform:scale(0.658,1)}69.72%,70.02%{transform:scale(0.684,1)}70.04%,70.35%{transform:scale(0.711,1)}70.37%,70.67%{transform:scale(0.737,1)}70.69%,71%{transform:scale(0.763,1)}71.02%,71.33%{transform:scale(0.789,1)}71.35%,71.65%{transform:scale(0.816,1)}71.67%,71.98%{transform:scale(0.842,1)}72%,72.3%{transform:scale(0.868,1)}72.32%,72.63%{transform:scale(0.895,1)}72.65%,72.95%{transform:scale(0.921,1)}72.97%,73.28%{transform:scale(0.947,1)}73.3%,75.56%{transform:scale(0.974,1)}75.58%,100%{transform:scale(1.000,1)}}.u.u2{fill:var(--c3);animation-name:u2;transform-origin:373.1px 0}@keyframes u3{77.51%{transform:scale(0.000,1)}77.53%,78.17%{transform:scale(0.250,1)}78.19%,79.14%{transform:scale(0.500,1)}79.16%,81.42%{transform:scale(0.750,1)}81.44%,100%{transform:scale(1.000,1)}}.u.u3{fill:var(--c4);animation-name:u3;transform-origin:802.8px 0}.s{shape-rendering:geometricPrecision;fill:var(--cs);animation:none linear 30700ms infinite}@keyframes s0{0%,99.67%{transform:translate(0px,-16px)}0.33%{transform:translate(0px,0px)}0.65%{transform:translate(16px,0px)}1.95%{transform:translate(16px,64px)}4.23%{transform:translate(128px,64px)}4.56%{transform:translate(128px,80px)}4.89%{transform:translate(112px,80px)}5.21%{transform:translate(112px,64px)}6.84%{transform:translate(192px,64px)}7.49%{transform:translate(192px,32px)}8.14%{transform:translate(224px,32px)}8.47%{transform:translate(224px,16px)}9.77%{transform:translate(288px,16px)}10.75%{transform:translate(288px,64px)}11.07%{transform:translate(272px,64px)}11.4%{transform:translate(272px,48px)}13.03%{transform:translate(192px,48px)}13.68%{transform:translate(192px,80px)}14.01%{transform:translate(176px,80px)}14.33%{transform:translate(176px,64px)}18.24%{transform:translate(368px,64px)}18.57%{transform:translate(368px,48px)}18.89%{transform:translate(384px,48px)}19.87%{transform:translate(384px,0px)}20.52%{transform:translate(416px,0px)}20.85%{transform:translate(416px,16px)}21.82%{transform:translate(464px,16px)}22.48%{transform:translate(464px,48px)}25.41%,26.71%{transform:translate(608px,48px)}25.73%{transform:translate(608px,32px)}26.06%{transform:translate(624px,32px)}26.38%{transform:translate(624px,48px)}27.04%{transform:translate(608px,64px)}28.99%,32.9%,35.5%{transform:translate(704px,64px)}29.32%,33.88%{transform:translate(704px,80px)}29.97%{transform:translate(736px,80px)}31.27%{transform:translate(736px,16px)}31.92%,36.48%{transform:translate(704px,16px)}33.22%,35.18%{transform:translate(720px,64px)}33.55%{transform:translate(720px,80px)}34.2%{transform:translate(704px,96px)}34.53%,76.22%{transform:translate(720px,96px)}48.21%,96.42%{transform:translate(128px,16px)}48.53%{transform:translate(128px,32px)}60.26%{transform:translate(704px,32px)}60.59%{transform:translate(704px,48px)}63.19%{transform:translate(832px,48px)}64.17%{transform:translate(832px,0px)}65.47%{transform:translate(768px,0px)}65.8%{transform:translate(768px,16px)}66.78%,80.46%{transform:translate(816px,16px)}67.1%{transform:translate(816px,32px)}68.4%{transform:translate(752px,32px)}69.06%{transform:translate(752px,64px)}70.03%{transform:translate(800px,64px)}70.36%{transform:translate(800px,80px)}70.68%{transform:translate(816px,80px)}71.01%{transform:translate(816px,96px)}71.66%{transform:translate(784px,96px)}71.99%{transform:translate(784px,80px)}72.64%{transform:translate(752px,80px)}72.96%{transform:translate(752px,96px)}73.29%{transform:translate(768px,96px)}73.62%{transform:translate(768px,80px)}75.24%{transform:translate(688px,80px)}75.57%{transform:translate(688px,96px)}78.18%{transform:translate(720px,0px)}78.83%{transform:translate(752px,0px)}79.15%{transform:translate(752px,16px)}81.43%{transform:translate(816px,64px)}95.11%{transform:translate(144px,64px)}95.44%{transform:translate(144px,48px)}95.77%{transform:translate(128px,48px)}96.74%{transform:translate(112px,16px)}97.07%{transform:translate(112px,0px)}97.72%{transform:translate(80px,0px)}98.05%{transform:translate(80px,-16px)}}.s.s0{transform:translate(0px,-16px);animation-name:s0}@keyframes s1{0%,99.67%{transform:translate(16px,-16px)}0.33%{transform:translate(0px,-16px)}0.65%{transform:translate(0px,0px)}0.98%{transform:translate(16px,0px)}2.28%{transform:translate(16px,64px)}4.56%{transform:translate(128px,64px)}4.89%{transform:translate(128px,80px)}5.21%{transform:translate(112px,80px)}5.54%{transform:translate(112px,64px)}7.17%{transform:translate(192px,64px)}7.82%{transform:translate(192px,32px)}8.47%{transform:translate(224px,32px)}8.79%{transform:translate(224px,16px)}10.1%{transform:translate(288px,16px)}11.07%{transform:translate(288px,64px)}11.4%{transform:translate(272px,64px)}11.73%{transform:translate(272px,48px)}13.36%{transform:translate(192px,48px)}14.01%{transform:translate(192px,80px)}14.33%{transform:translate(176px,80px)}14.66%{transform:translate(176px,64px)}18.57%{transform:translate(368px,64px)}18.89%{transform:translate(368px,48px)}19.22%{transform:translate(384px,48px)}20.2%{transform:translate(384px,0px)}20.85%{transform:translate(416px,0px)}21.17%{transform:translate(416px,16px)}22.15%{transform:translate(464px,16px)}22.8%{transform:translate(464px,48px)}25.73%,27.04%{transform:translate(608px,48px)}26.06%{transform:translate(608px,32px)}26.38%{transform:translate(624px,32px)}26.71%{transform:translate(624px,48px)}27.36%{transform:translate(608px,64px)}29.32%,33.22%,35.83%{transform:translate(704px,64px)}29.64%,34.2%{transform:translate(704px,80px)}30.29%{transform:translate(736px,80px)}31.6%{transform:translate(736px,16px)}32.25%,36.81%{transform:translate(704px,16px)}33.55%,35.5%{transform:translate(720px,64px)}33.88%{transform:translate(720px,80px)}34.53%{transform:translate(704px,96px)}34.85%,76.55%{transform:translate(720px,96px)}48.53%,96.74%{transform:translate(128px,16px)}48.86%{transform:translate(128px,32px)}60.59%{transform:translate(704px,32px)}60.91%{transform:translate(704px,48px)}63.52%{transform:translate(832px,48px)}64.5%{transform:translate(832px,0px)}65.8%{transform:translate(768px,0px)}66.12%{transform:translate(768px,16px)}67.1%,80.78%{transform:translate(816px,16px)}67.43%{transform:translate(816px,32px)}68.73%{transform:translate(752px,32px)}69.38%{transform:translate(752px,64px)}70.36%{transform:translate(800px,64px)}70.68%{transform:translate(800px,80px)}71.01%{transform:translate(816px,80px)}71.34%{transform:translate(816px,96px)}71.99%{transform:translate(784px,96px)}72.31%{transform:translate(784px,80px)}72.96%{transform:translate(752px,80px)}73.29%{transform:translate(752px,96px)}73.62%{transform:translate(768px,96px)}73.94%{transform:translate(768px,80px)}75.57%{transform:translate(688px,80px)}75.9%{transform:translate(688px,96px)}78.5%{transform:translate(720px,0px)}79.15%{transform:translate(752px,0px)}79.48%{transform:translate(752px,16px)}81.76%{transform:translate(816px,64px)}95.44%{transform:translate(144px,64px)}95.77%{transform:translate(144px,48px)}96.09%{transform:translate(128px,48px)}97.07%{transform:translate(112px,16px)}97.39%{transform:translate(112px,0px)}98.05%{transform:translate(80px,0px)}98.37%{transform:translate(80px,-16px)}}.s.s1{transform:translate(16px,-16px);animation-name:s1}@keyframes s2{0%,99.67%{transform:translate(32px,-16px)}0.65%{transform:translate(0px,-16px)}0.98%{transform:translate(0px,0px)}1.3%{transform:translate(16px,0px)}2.61%{transform:translate(16px,64px)}4.89%{transform:translate(128px,64px)}5.21%{transform:translate(128px,80px)}5.54%{transform:translate(112px,80px)}5.86%{transform:translate(112px,64px)}7.49%{transform:translate(192px,64px)}8.14%{transform:translate(192px,32px)}8.79%{transform:translate(224px,32px)}9.12%{transform:translate(224px,16px)}10.42%{transform:translate(288px,16px)}11.4%{transform:translate(288px,64px)}11.73%{transform:translate(272px,64px)}12.05%{transform:translate(272px,48px)}13.68%{transform:translate(192px,48px)}14.33%{transform:translate(192px,80px)}14.66%{transform:translate(176px,80px)}14.98%{transform:translate(176px,64px)}18.89%{transform:translate(368px,64px)}19.22%{transform:translate(368px,48px)}19.54%{transform:translate(384px,48px)}20.52%{transform:translate(384px,0px)}21.17%{transform:translate(416px,0px)}21.5%{transform:translate(416px,16px)}22.48%{transform:translate(464px,16px)}23.13%{transform:translate(464px,48px)}26.06%,27.36%{transform:translate(608px,48px)}26.38%{transform:translate(608px,32px)}26.71%{transform:translate(624px,32px)}27.04%{transform:translate(624px,48px)}27.69%{transform:translate(608px,64px)}29.64%,33.55%,36.16%{transform:translate(704px,64px)}29.97%,34.53%{transform:translate(704px,80px)}30.62%{transform:translate(736px,80px)}31.92%{transform:translate(736px,16px)}32.57%,37.13%{transform:translate(704px,16px)}33.88%,35.83%{transform:translate(720px,64px)}34.2%{transform:translate(720px,80px)}34.85%{transform:translate(704px,96px)}35.18%,76.87%{transform:translate(720px,96px)}48.86%,97.07%{transform:translate(128px,16px)}49.19%{transform:translate(128px,32px)}60.91%{transform:translate(704px,32px)}61.24%{transform:translate(704px,48px)}63.84%{transform:translate(832px,48px)}64.82%{transform:translate(832px,0px)}66.12%{transform:translate(768px,0px)}66.45%{transform:translate(768px,16px)}67.43%,81.11%{transform:translate(816px,16px)}67.75%{transform:translate(816px,32px)}69.06%{transform:translate(752px,32px)}69.71%{transform:translate(752px,64px)}70.68%{transform:translate(800px,64px)}71.01%{transform:translate(800px,80px)}71.34%{transform:translate(816px,80px)}71.66%{transform:translate(816px,96px)}72.31%{transform:translate(784px,96px)}72.64%{transform:translate(784px,80px)}73.29%{transform:translate(752px,80px)}73.62%{transform:translate(752px,96px)}73.94%{transform:translate(768px,96px)}74.27%{transform:translate(768px,80px)}75.9%{transform:translate(688px,80px)}76.22%{transform:translate(688px,96px)}78.83%{transform:translate(720px,0px)}79.48%{transform:translate(752px,0px)}79.8%{transform:translate(752px,16px)}82.08%{transform:translate(816px,64px)}95.77%{transform:translate(144px,64px)}96.09%{transform:translate(144px,48px)}96.42%{transform:translate(128px,48px)}97.39%{transform:translate(112px,16px)}97.72%{transform:translate(112px,0px)}98.37%{transform:translate(80px,0px)}98.7%{transform:translate(80px,-16px)}}.s.s2{transform:translate(32px,-16px);animation-name:s2}@keyframes s3{0%,99.67%{transform:translate(48px,-16px)}0.98%{transform:translate(0px,-16px)}1.3%{transform:translate(0px,0px)}1.63%{transform:translate(16px,0px)}2.93%{transform:translate(16px,64px)}5.21%{transform:translate(128px,64px)}5.54%{transform:translate(128px,80px)}5.86%{transform:translate(112px,80px)}6.19%{transform:translate(112px,64px)}7.82%{transform:translate(192px,64px)}8.47%{transform:translate(192px,32px)}9.12%{transform:translate(224px,32px)}9.45%{transform:translate(224px,16px)}10.75%{transform:translate(288px,16px)}11.73%{transform:translate(288px,64px)}12.05%{transform:translate(272px,64px)}12.38%{transform:translate(272px,48px)}14.01%{transform:translate(192px,48px)}14.66%{transform:translate(192px,80px)}14.98%{transform:translate(176px,80px)}15.31%{transform:translate(176px,64px)}19.22%{transform:translate(368px,64px)}19.54%{transform:translate(368px,48px)}19.87%{transform:translate(384px,48px)}20.85%{transform:translate(384px,0px)}21.5%{transform:translate(416px,0px)}21.82%{transform:translate(416px,16px)}22.8%{transform:translate(464px,16px)}23.45%{transform:translate(464px,48px)}26.38%,27.69%{transform:translate(608px,48px)}26.71%{transform:translate(608px,32px)}27.04%{transform:translate(624px,32px)}27.36%{transform:translate(624px,48px)}28.01%{transform:translate(608px,64px)}29.97%,33.88%,36.48%{transform:translate(704px,64px)}30.29%,34.85%{transform:translate(704px,80px)}30.94%{transform:translate(736px,80px)}32.25%{transform:translate(736px,16px)}32.9%,37.46%{transform:translate(704px,16px)}34.2%,36.16%{transform:translate(720px,64px)}34.53%{transform:translate(720px,80px)}35.18%{transform:translate(704px,96px)}35.5%,77.2%{transform:translate(720px,96px)}49.19%,97.39%{transform:translate(128px,16px)}49.51%{transform:translate(128px,32px)}61.24%{transform:translate(704px,32px)}61.56%{transform:translate(704px,48px)}64.17%{transform:translate(832px,48px)}65.15%{transform:translate(832px,0px)}66.45%{transform:translate(768px,0px)}66.78%{transform:translate(768px,16px)}67.75%,81.43%{transform:translate(816px,16px)}68.08%{transform:translate(816px,32px)}69.38%{transform:translate(752px,32px)}70.03%{transform:translate(752px,64px)}71.01%{transform:translate(800px,64px)}71.34%{transform:translate(800px,80px)}71.66%{transform:translate(816px,80px)}71.99%{transform:translate(816px,96px)}72.64%{transform:translate(784px,96px)}72.96%{transform:translate(784px,80px)}73.62%{transform:translate(752px,80px)}73.94%{transform:translate(752px,96px)}74.27%{transform:translate(768px,96px)}74.59%{transform:translate(768px,80px)}76.22%{transform:translate(688px,80px)}76.55%{transform:translate(688px,96px)}79.15%{transform:translate(720px,0px)}79.8%{transform:translate(752px,0px)}80.13%{transform:translate(752px,16px)}82.41%{transform:translate(816px,64px)}96.09%{transform:translate(144px,64px)}96.42%{transform:translate(144px,48px)}96.74%{transform:translate(128px,48px)}97.72%{transform:translate(112px,16px)}98.05%{transform:translate(112px,0px)}98.7%{transform:translate(80px,0px)}99.02%{transform:translate(80px,-16px)}}.s.s3{transform:translate(48px,-16px);animation-name:s3}</style><rect class="c" x="2" y="2" rx="2" ry="2"/><rect class="c" x="2" y="18" rx="2" ry="2"/><rect class="c" x="2" y="34" rx="2" ry="2"/><rect class="c" x="2" y="50" rx="2" ry="2"/><rect class="c" x="2" y="66" rx="2" ry="2"/><rect class="c" x="2" y="82" rx="2" ry="2"/><rect class="c" x="2" y="98" rx="2" ry="2"/><rect class="c" x="18" y="2" rx="2" ry="2"/><rect class="c" x="18" y="18" rx="2" ry="2"/><rect class="c" x="18" y="34" rx="2" ry="2"/><rect class="c" x="18" y="50" rx="2" ry="2"/><rect class="c c0" x="18" y="66" rx="2" ry="2"/><rect class="c" x="18" y="82" rx="2" ry="2"/><rect class="c" x="18" y="98" rx="2" ry="2"/><rect class="c" x="34" y="2" rx="2" ry="2"/><rect class="c" x="34" y="18" rx="2" ry="2"/><rect class="c" x="34" y="34" rx="2" ry="2"/><rect class="c" x="34" y="50" rx="2" ry="2"/><rect class="c" x="34" y="66" rx="2" ry="2"/><rect class="c" x="34" y="82" rx="2" ry="2"/><rect class="c" x="34" y="98" rx="2" ry="2"/><rect class="c" x="50" y="2" rx="2" ry="2"/><rect class="c" x="50" y="18" rx="2" ry="2"/><rect class="c" x="50" y="34" rx="2" ry="2"/><rect class="c" x="50" y="50" rx="2" ry="2"/><rect class="c" x="50" y="66" rx="2" ry="2"/><rect class="c" x="50" y="82" rx="2" ry="2"/><rect class="c" x="50" y="98" rx="2" ry="2"/><rect class="c" x="66" y="2" rx="2" ry="2"/><rect class="c" x="66" y="18" rx="2" ry="2"/><rect class="c" x="66" y="34" rx="2" ry="2"/><rect class="c" x="66" y="50" rx="2" ry="2"/><rect class="c" x="66" y="66" rx="2" ry="2"/><rect class="c" x="66" y="82" rx="2" ry="2"/><rect class="c" x="66" y="98" rx="2" ry="2"/><rect class="c" x="82" y="2" rx="2" ry="2"/><rect class="c" x="82" y="18" rx="2" ry="2"/><rect class="c" x="82" y="34" rx="2" ry="2"/><rect class="c" x="82" y="50" rx="2" ry="2"/><rect class="c" x="82" y="66" rx="2" ry="2"/><rect class="c" x="82" y="82" rx="2" ry="2"/><rect class="c" x="82" y="98" rx="2" ry="2"/><rect class="c" x="98" y="2" rx="2" ry="2"/><rect class="c" x="98" y="18" rx="2" ry="2"/><rect class="c" x="98" y="34" rx="2" ry="2"/><rect class="c" x="98" y="50" rx="2" ry="2"/><rect class="c" x="98" y="66" rx="2" ry="2"/><rect class="c" x="98" y="82" rx="2" ry="2"/><rect class="c" x="98" y="98" rx="2" ry="2"/><rect class="c" x="114" y="2" rx="2" ry="2"/><rect class="c" x="114" y="18" rx="2" ry="2"/><rect class="c" x="114" y="34" rx="2" ry="2"/><rect class="c" x="114" y="50" rx="2" ry="2"/><rect class="c" x="114" y="66" rx="2" ry="2"/><rect class="c c1" x="114" y="82" rx="2" ry="2"/><rect class="c" x="114" y="98" rx="2" ry="2"/><rect class="c" x="130" y="2" rx="2" ry="2"/><rect class="c c2" x="130" y="18" rx="2" ry="2"/><rect class="c" x="130" y="34" rx="2" ry="2"/><rect class="c" x="130" y="50" rx="2" ry="2"/><rect class="c c3" x="130" y="66" rx="2" ry="2"/><rect class="c" x="130" y="82" rx="2" ry="2"/><rect class="c" x="130" y="98" rx="2" ry="2"/><rect class="c" x="146" y="2" rx="2" ry="2"/><rect class="c" x="146" y="18" rx="2" ry="2"/><rect class="c" x="146" y="34" rx="2" ry="2"/><rect class="c" x="146" y="50" rx="2" ry="2"/><rect class="c" x="146" y="66" rx="2" ry="2"/><rect class="c" x="146" y="82" rx="2" ry="2"/><rect class="c" x="146" y="98" rx="2" ry="2"/><rect class="c" x="162" y="2" rx="2" ry="2"/><rect class="c" x="162" y="18" rx="2" ry="2"/><rect class="c" x="162" y="34" rx="2" ry="2"/><rect class="c" x="162" y="50" rx="2" ry="2"/><rect class="c" x="162" y="66" rx="2" ry="2"/><rect class="c" x="162" y="82" rx="2" ry="2"/><rect class="c" x="162" y="98" rx="2" ry="2"/><rect class="c" x="178" y="2" rx="2" ry="2"/><rect class="c" x="178" y="18" rx="2" ry="2"/><rect class="c" x="178" y="34" rx="2" ry="2"/><rect class="c" x="178" y="50" rx="2" ry="2"/><rect class="c c4" x="178" y="66" rx="2" ry="2"/><rect class="c c5" x="178" y="82" rx="2" ry="2"/><rect class="c" x="178" y="98" rx="2" ry="2"/><rect class="c" x="194" y="2" rx="2" ry="2"/><rect class="c" x="194" y="18" rx="2" ry="2"/><rect class="c c6" x="194" y="34" rx="2" ry="2"/><rect class="c c7" x="194" y="50" rx="2" ry="2"/><rect class="c c8" x="194" y="66" rx="2" ry="2"/><rect class="c c9" x="194" y="82" rx="2" ry="2"/><rect class="c" x="194" y="98" rx="2" ry="2"/><rect class="c" x="210" y="2" rx="2" ry="2"/><rect class="c" x="210" y="18" rx="2" ry="2"/><rect class="c" x="210" y="34" rx="2" ry="2"/><rect class="c" x="210" y="50" rx="2" ry="2"/><rect class="c" x="210" y="66" rx="2" ry="2"/><rect class="c" x="210" y="82" rx="2" ry="2"/><rect class="c" x="210" y="98" rx="2" ry="2"/><rect class="c" x="226" y="2" rx="2" ry="2"/><rect class="c ca" x="226" y="18" rx="2" ry="2"/><rect class="c" x="226" y="34" rx="2" ry="2"/><rect class="c" x="226" y="50" rx="2" ry="2"/><rect class="c" x="226" y="66" rx="2" ry="2"/><rect class="c" x="226" y="82" rx="2" ry="2"/><rect class="c" x="226" y="98" rx="2" ry="2"/><rect class="c" x="242" y="2" rx="2" ry="2"/><rect class="c" x="242" y="18" rx="2" ry="2"/><rect class="c" x="242" y="34" rx="2" ry="2"/><rect class="c" x="242" y="50" rx="2" ry="2"/><rect class="c" x="242" y="66" rx="2" ry="2"/><rect class="c" x="242" y="82" rx="2" ry="2"/><rect class="c" x="242" y="98" rx="2" ry="2"/><rect class="c" x="258" y="2" rx="2" ry="2"/><rect class="c" x="258" y="18" rx="2" ry="2"/><rect class="c" x="258" y="34" rx="2" ry="2"/><rect class="c cb" x="258" y="50" rx="2" ry="2"/><rect class="c" x="258" y="66" rx="2" ry="2"/><rect class="c" x="258" y="82" rx="2" ry="2"/><rect class="c" x="258" y="98" rx="2" ry="2"/><rect class="c" x="274" y="2" rx="2" ry="2"/><rect class="c" x="274" y="18" rx="2" ry="2"/><rect class="c" x="274" y="34" rx="2" ry="2"/><rect class="c" x="274" y="50" rx="2" ry="2"/><rect class="c cc" x="274" y="66" rx="2" ry="2"/><rect class="c" x="274" y="82" rx="2" ry="2"/><rect class="c" x="274" y="98" rx="2" ry="2"/><rect class="c" x="290" y="2" rx="2" ry="2"/><rect class="c cd" x="290" y="18" rx="2" ry="2"/><rect class="c" x="290" y="34" rx="2" ry="2"/><rect class="c ce" x="290" y="50" rx="2" ry="2"/><rect class="c cf" x="290" y="66" rx="2" ry="2"/><rect class="c" x="290" y="82" rx="2" ry="2"/><rect class="c" x="290" y="98" rx="2" ry="2"/><rect class="c" x="306" y="2" rx="2" ry="2"/><rect class="c" x="306" y="18" rx="2" ry="2"/><rect class="c" x="306" y="34" rx="2" ry="2"/><rect class="c" x="306" y="50" rx="2" ry="2"/><rect class="c" x="306" y="66" rx="2" ry="2"/><rect class="c" x="306" y="82" rx="2" ry="2"/><rect class="c" x="306" y="98" rx="2" ry="2"/><rect class="c" x="322" y="2" rx="2" ry="2"/><rect class="c" x="322" y="18" rx="2" ry="2"/><rect class="c" x="322" y="34" rx="2" ry="2"/><rect class="c" x="322" y="50" rx="2" ry="2"/><rect class="c" x="322" y="66" rx="2" ry="2"/><rect class="c" x="322" y="82" rx="2" ry="2"/><rect class="c" x="322" y="98" rx="2" ry="2"/><rect class="c" x="338" y="2" rx="2" ry="2"/><rect class="c" x="338" y="18" rx="2" ry="2"/><rect class="c" x="338" y="34" rx="2" ry="2"/><rect class="c" x="338" y="50" rx="2" ry="2"/><rect class="c" x="338" y="66" rx="2" ry="2"/><rect class="c" x="338" y="82" rx="2" ry="2"/><rect class="c" x="338" y="98" rx="2" ry="2"/><rect class="c" x="354" y="2" rx="2" ry="2"/><rect class="c" x="354" y="18" rx="2" ry="2"/><rect class="c" x="354" y="34" rx="2" ry="2"/><rect class="c" x="354" y="50" rx="2" ry="2"/><rect class="c" x="354" y="66" rx="2" ry="2"/><rect class="c" x="354" y="82" rx="2" ry="2"/><rect class="c" x="354" y="98" rx="2" ry="2"/><rect class="c" x="370" y="2" rx="2" ry="2"/><rect class="c" x="370" y="18" rx="2" ry="2"/><rect class="c" x="370" y="34" rx="2" ry="2"/><rect class="c cg" x="370" y="50" rx="2" ry="2"/><rect class="c" x="370" y="66" rx="2" ry="2"/><rect class="c" x="370" y="82" rx="2" ry="2"/><rect class="c" x="370" y="98" rx="2" ry="2"/><rect class="c ch" x="386" y="2" rx="2" ry="2"/><rect class="c" x="386" y="18" rx="2" ry="2"/><rect class="c" x="386" y="34" rx="2" ry="2"/><rect class="c" x="386" y="50" rx="2" ry="2"/><rect class="c" x="386" y="66" rx="2" ry="2"/><rect class="c" x="386" y="82" rx="2" ry="2"/><rect class="c" x="386" y="98" rx="2" ry="2"/><rect class="c" x="402" y="2" rx="2" ry="2"/><rect class="c" x="402" y="18" rx="2" ry="2"/><rect class="c" x="402" y="34" rx="2" ry="2"/><rect class="c" x="402" y="50" rx="2" ry="2"/><rect class="c" x="402" y="66" rx="2" ry="2"/><rect class="c" x="402" y="82" rx="2" ry="2"/><rect class="c" x="402" y="98" rx="2" ry="2"/><rect class="c" x="418" y="2" rx="2" ry="2"/><rect class="c ci" x="418" y="18" rx="2" ry="2"/><rect class="c" x="418" y="34" rx="2" ry="2"/><rect class="c" x="418" y="50" rx="2" ry="2"/><rect class="c" x="418" y="66" rx="2" ry="2"/><rect class="c" x="418" y="82" rx="2" ry="2"/><rect class="c" x="418" y="98" rx="2" ry="2"/><rect class="c" x="434" y="2" rx="2" ry="2"/><rect class="c" x="434" y="18" rx="2" ry="2"/><rect class="c" x="434" y="34" rx="2" ry="2"/><rect class="c" x="434" y="50" rx="2" ry="2"/><rect class="c" x="434" y="66" rx="2" ry="2"/><rect class="c" x="434" y="82" rx="2" ry="2"/><rect class="c" x="434" y="98" rx="2" ry="2"/><rect class="c" x="450" y="2" rx="2" ry="2"/><rect class="c" x="450" y="18" rx="2" ry="2"/><rect class="c" x="450" y="34" rx="2" ry="2"/><rect class="c" x="450" y="50" rx="2" ry="2"/><rect class="c" x="450" y="66" rx="2" ry="2"/><rect class="c" x="450" y="82" rx="2" ry="2"/><rect class="c" x="450" y="98" rx="2" ry="2"/><rect class="c" x="466" y="2" rx="2" ry="2"/><rect class="c" x="466" y="18" rx="2" ry="2"/><rect class="c cj" x="466" y="34" rx="2" ry="2"/><rect class="c ck" x="466" y="50" rx="2" ry="2"/><rect class="c" x="466" y="66" rx="2" ry="2"/><rect class="c" x="466" y="82" rx="2" ry="2"/><rect class="c" x="466" y="98" rx="2" ry="2"/><rect class="c" x="482" y="2" rx="2" ry="2"/><rect class="c" x="482" y="18" rx="2" ry="2"/><rect class="c" x="482" y="34" rx="2" ry="2"/><rect class="c" x="482" y="50" rx="2" ry="2"/><rect class="c" x="482" y="66" rx="2" ry="2"/><rect class="c" x="482" y="82" rx="2" ry="2"/><rect class="c" x="482" y="98" rx="2" ry="2"/><rect class="c" x="498" y="2" rx="2" ry="2"/><rect class="c" x="498" y="18" rx="2" ry="2"/><rect class="c" x="498" y="34" rx="2" ry="2"/><rect class="c" x="498" y="50" rx="2" ry="2"/><rect class="c" x="498" y="66" rx="2" ry="2"/><rect class="c" x="498" y="82" rx="2" ry="2"/><rect class="c" x="498" y="98" rx="2" ry="2"/><rect class="c" x="514" y="2" rx="2" ry="2"/><rect class="c" x="514" y="18" rx="2" ry="2"/><rect class="c" x="514" y="34" rx="2" ry="2"/><rect class="c" x="514" y="50" rx="2" ry="2"/><rect class="c" x="514" y="66" rx="2" ry="2"/><rect class="c" x="514" y="82" rx="2" ry="2"/><rect class="c" x="514" y="98" rx="2" ry="2"/><rect class="c" x="530" y="2" rx="2" ry="2"/><rect class="c" x="530" y="18" rx="2" ry="2"/><rect class="c" x="530" y="34" rx="2" ry="2"/><rect class="c" x="530" y="50" rx="2" ry="2"/><rect class="c" x="530" y="66" rx="2" ry="2"/><rect class="c" x="530" y="82" rx="2" ry="2"/><rect class="c" x="530" y="98" rx="2" ry="2"/><rect class="c" x="546" y="2" rx="2" ry="2"/><rect class="c" x="546" y="18" rx="2" ry="2"/><rect class="c" x="546" y="34" rx="2" ry="2"/><rect class="c" x="546" y="50" rx="2" ry="2"/><rect class="c" x="546" y="66" rx="2" ry="2"/><rect class="c" x="546" y="82" rx="2" ry="2"/><rect class="c" x="546" y="98" rx="2" ry="2"/><rect class="c" x="562" y="2" rx="2" ry="2"/><rect class="c" x="562" y="18" rx="2" ry="2"/><rect class="c" x="562" y="34" rx="2" ry="2"/><rect class="c" x="562" y="50" rx="2" ry="2"/><rect class="c" x="562" y="66" rx="2" ry="2"/><rect class="c" x="562" y="82" rx="2" ry="2"/><rect class="c" x="562" y="98" rx="2" ry="2"/><rect class="c" x="578" y="2" rx="2" ry="2"/><rect class="c" x="578" y="18" rx="2" ry="2"/><rect class="c" x="578" y="34" rx="2" ry="2"/><rect class="c" x="578" y="50" rx="2" ry="2"/><rect class="c" x="578" y="66" rx="2" ry="2"/><rect class="c" x="578" y="82" rx="2" ry="2"/><rect class="c" x="578" y="98" rx="2" ry="2"/><rect class="c" x="594" y="2" rx="2" ry="2"/><rect class="c" x="594" y="18" rx="2" ry="2"/><rect class="c" x="594" y="34" rx="2" ry="2"/><rect class="c" x="594" y="50" rx="2" ry="2"/><rect class="c" x="594" y="66" rx="2" ry="2"/><rect class="c" x="594" y="82" rx="2" ry="2"/><rect class="c" x="594" y="98" rx="2" ry="2"/><rect class="c" x="610" y="2" rx="2" ry="2"/><rect class="c" x="610" y="18" rx="2" ry="2"/><rect class="c cl" x="610" y="34" rx="2" ry="2"/><rect class="c cm" x="610" y="50" rx="2" ry="2"/><rect class="c cn" x="610" y="66" rx="2" ry="2"/><rect class="c" x="610" y="82" rx="2" ry="2"/><rect class="c" x="610" y="98" rx="2" ry="2"/><rect class="c" x="626" y="2" rx="2" ry="2"/><rect class="c" x="626" y="18" rx="2" ry="2"/><rect class="c co" x="626" y="34" rx="2" ry="2"/><rect class="c" x="626" y="50" rx="2" ry="2"/><rect class="c" x="626" y="66" rx="2" ry="2"/><rect class="c" x="626" y="82" rx="2" ry="2"/><rect class="c" x="626" y="98" rx="2" ry="2"/><rect class="c" x="642" y="2" rx="2" ry="2"/><rect class="c" x="642" y="18" rx="2" ry="2"/><rect class="c" x="642" y="34" rx="2" ry="2"/><rect class="c" x="642" y="50" rx="2" ry="2"/><rect class="c" x="642" y="66" rx="2" ry="2"/><rect class="c" x="642" y="82" rx="2" ry="2"/><rect class="c" x="642" y="98" rx="2" ry="2"/><rect class="c" x="658" y="2" rx="2" ry="2"/><rect class="c" x="658" y="18" rx="2" ry="2"/><rect class="c" x="658" y="34" rx="2" ry="2"/><rect class="c" x="658" y="50" rx="2" ry="2"/><rect class="c" x="658" y="66" rx="2" ry="2"/><rect class="c" x="658" y="82" rx="2" ry="2"/><rect class="c" x="658" y="98" rx="2" ry="2"/><rect class="c" x="674" y="2" rx="2" ry="2"/><rect class="c" x="674" y="18" rx="2" ry="2"/><rect class="c" x="674" y="34" rx="2" ry="2"/><rect class="c" x="674" y="50" rx="2" ry="2"/><rect class="c" x="674" y="66" rx="2" ry="2"/><rect class="c" x="674" y="82" rx="2" ry="2"/><rect class="c" x="674" y="98" rx="2" ry="2"/><rect class="c" x="690" y="2" rx="2" ry="2"/><rect class="c" x="690" y="18" rx="2" ry="2"/><rect class="c" x="690" y="34" rx="2" ry="2"/><rect class="c" x="690" y="50" rx="2" ry="2"/><rect class="c" x="690" y="66" rx="2" ry="2"/><rect class="c" x="690" y="82" rx="2" ry="2"/><rect class="c cp" x="690" y="98" rx="2" ry="2"/><rect class="c" x="706" y="2" rx="2" ry="2"/><rect class="c" x="706" y="18" rx="2" ry="2"/><rect class="c cq" x="706" y="34" rx="2" ry="2"/><rect class="c cr" x="706" y="50" rx="2" ry="2"/><rect class="c cs" x="706" y="66" rx="2" ry="2"/><rect class="c ct" x="706" y="82" rx="2" ry="2"/><rect class="c cu" x="706" y="98" rx="2" ry="2"/><rect class="c cv" x="722" y="2" rx="2" ry="2"/><rect class="c" x="722" y="18" rx="2" ry="2"/><rect class="c cw" x="722" y="34" rx="2" ry="2"/><rect class="c cx" x="722" y="50" rx="2" ry="2"/><rect class="c cy" x="722" y="66" rx="2" ry="2"/><rect class="c" x="722" y="82" rx="2" ry="2"/><rect class="c" x="722" y="98" rx="2" ry="2"/><rect class="c" x="738" y="2" rx="2" ry="2"/><rect class="c" x="738" y="18" rx="2" ry="2"/><rect class="c cz" x="738" y="34" rx="2" ry="2"/><rect class="c" x="738" y="50" rx="2" ry="2"/><rect class="c c10" x="738" y="66" rx="2" ry="2"/><rect class="c" x="738" y="82" rx="2" ry="2"/><rect class="c" x="738" y="98" rx="2" ry="2"/><rect class="c" x="754" y="2" rx="2" ry="2"/><rect class="c c11" x="754" y="18" rx="2" ry="2"/><rect class="c c12" x="754" y="34" rx="2" ry="2"/><rect class="c c13" x="754" y="50" rx="2" ry="2"/><rect class="c c14" x="754" y="66" rx="2" ry="2"/><rect class="c c15" x="754" y="82" rx="2" ry="2"/><rect class="c c16" x="754" y="98" rx="2" ry="2"/><rect class="c c17" x="770" y="2" rx="2" ry="2"/><rect class="c c18" x="770" y="18" rx="2" ry="2"/><rect class="c c19" x="770" y="34" rx="2" ry="2"/><rect class="c c1a" x="770" y="50" rx="2" ry="2"/><rect class="c c1b" x="770" y="66" rx="2" ry="2"/><rect class="c c1c" x="770" y="82" rx="2" ry="2"/><rect class="c c1d" x="770" y="98" rx="2" ry="2"/><rect class="c c1e" x="786" y="2" rx="2" ry="2"/><rect class="c c1f" x="786" y="18" rx="2" ry="2"/><rect class="c c1g" x="786" y="34" rx="2" ry="2"/><rect class="c c1h" x="786" y="50" rx="2" ry="2"/><rect class="c c1i" x="786" y="66" rx="2" ry="2"/><rect class="c c1j" x="786" y="82" rx="2" ry="2"/><rect class="c c1k" x="786" y="98" rx="2" ry="2"/><rect class="c c1l" x="802" y="2" rx="2" ry="2"/><rect class="c c1m" x="802" y="18" rx="2" ry="2"/><rect class="c c1n" x="802" y="34" rx="2" ry="2"/><rect class="c c1o" x="802" y="50" rx="2" ry="2"/><rect class="c c1p" x="802" y="66" rx="2" ry="2"/><rect class="c c1q" x="802" y="82" rx="2" ry="2"/><rect class="c c1r" x="802" y="98" rx="2" ry="2"/><rect class="c c1s" x="818" y="2" rx="2" ry="2"/><rect class="c c1t" x="818" y="18" rx="2" ry="2"/><rect class="c c1u" x="818" y="34" rx="2" ry="2"/><rect class="c c1v" x="818" y="50" rx="2" ry="2"/><rect class="c c1w" x="818" y="66" rx="2" ry="2"/><rect class="c c1x" x="818" y="82" rx="2" ry="2"/><rect class="c c1y" x="818" y="98" rx="2" ry="2"/><rect class="c c1z" x="834" y="2" rx="2" ry="2"/><rect class="c c20" x="834" y="18" rx="2" ry="2"/><rect class="c c21" x="834" y="34" rx="2" ry="2"/><rect class="c c22" x="834" y="50" rx="2" ry="2"/><rect class="c" x="834" y="66" rx="2" ry="2"/><rect class="u u0" height="12" width="328.5" x="0.0" y="144"/><rect class="u u1" height="12" width="45.8" x="327.9" y="144"/><rect class="u u2" height="12" width="430.3" x="373.1" y="144"/><rect class="u u3" height="12" width="45.8" x="802.8" y="144"/><rect class="s s0" x="0.8" y="0.8" width="14.4" height="14.4" rx="4.5" ry="4.5"/><rect class="s s1" x="1.8" y="1.8" width="12.3" height="12.3" rx="4.1" ry="4.1"/><rect class="s s2" x="2.6" y="2.6" width="10.8" height="10.8" rx="3.6" ry="3.6"/><rect class="s s3" x="3.0" y="3.0" width="9.9" height="9.9" rx="3.3" ry="3.3"/></svg>